<svg width="100" height="100" viewBox="0 0 100 100" fill="none" xmlns="http://www.w3.org/2000/svg">
<path d="M30.65 13.9648C34.0599 11.3823 38.2226 9.98949 42.5 9.99977C43.9772 9.96664 45.439 10.3067 46.7499 10.9884C48.0609 11.6701 49.1787 12.6714 50 13.8998C50.8213 12.6714 51.9391 11.6701 53.2501 10.9884C54.561 10.3067 56.0228 9.96664 57.5 9.99977C61.7774 9.98949 65.9401 11.3823 69.35 13.9648C71.975 16.0048 74 18.8298 74.715 22.2448C76.355 22.3698 77.855 23.0498 79.115 24.0748C81.025 25.6248 82.415 27.9498 83.29 30.4098C84.66 34.2348 85.03 39.1098 83.61 43.2598C83.97 43.4298 84.325 43.6298 84.67 43.8598C86.045 44.7748 87.09 46.0848 87.86 47.6298C89.375 50.6548 90 54.8748 90 59.9998C90 65.7048 87.825 69.5348 85.065 71.8998C83.5388 73.2084 81.7376 74.1568 79.795 74.6748C79.295 77.4648 77.895 80.6948 75.7 83.4348C72.85 87.0098 68.43 89.9998 62.5 89.9998C57.8 89.9998 54.06 87.3998 51.63 84.8498C51.049 84.2409 50.5048 83.5981 50 82.9248C49.4953 83.5982 48.951 84.241 48.37 84.8498C45.94 87.3998 42.205 89.9998 37.5 89.9998C31.57 89.9998 27.155 87.0098 24.3 83.4348C22.2488 80.8876 20.8439 77.8822 20.205 74.6748C18.2624 74.1568 16.4613 73.2084 14.935 71.8998C12.175 69.5348 10 65.6998 10 59.9998C10 54.8748 10.63 50.6498 12.14 47.6298C12.8556 46.1146 13.9554 44.8131 15.33 43.8548C15.6677 43.6312 16.0221 43.434 16.39 43.2648C14.97 39.1048 15.34 34.2348 16.71 30.4098C17.585 27.9498 18.975 25.6248 20.885 24.0748C22.145 23.0498 23.645 22.3748 25.285 22.2448C26.005 18.8298 28.03 16.0048 30.655 13.9648H30.65ZM47.5 22.4998V22.4498L47.49 22.1998C47.4164 20.8963 47.1571 19.61 46.72 18.3798C46.4088 17.4511 45.8789 16.6108 45.175 15.9298C44.4365 15.2867 43.4782 14.9535 42.5 14.9998C39.3347 14.9889 36.2522 16.0106 33.72 17.9098C31.4 19.7148 30 22.1598 30 24.9998C29.9997 25.3957 29.9054 25.7859 29.7248 26.1382C29.5442 26.4905 29.2825 26.7949 28.9613 27.0264C28.64 27.2578 28.2684 27.4096 27.877 27.4693C27.4856 27.529 27.0856 27.4949 26.71 27.3698C25.77 27.0598 24.93 27.2348 24.035 27.9548C23.055 28.7548 22.1 30.1748 21.415 32.0898C20.02 35.9998 20.165 40.7348 22.08 43.6148C22.3535 44.0249 22.4996 44.5068 22.5 44.9998H26.25C29.2337 44.9998 32.0952 46.185 34.205 48.2948C36.3147 50.4046 37.5 53.2661 37.5 56.2498V57.9248C39.168 58.5145 40.5739 59.6749 41.4691 61.201C42.3643 62.727 42.6912 64.5204 42.392 66.2641C42.0928 68.0078 41.1868 69.5897 39.8341 70.73C38.4815 71.8704 36.7692 72.4958 35 72.4958C33.2308 72.4958 31.5185 71.8704 30.1659 70.73C28.8132 69.5897 27.9072 68.0078 27.608 66.2641C27.3088 64.5204 27.6357 62.727 28.5309 61.201C29.4261 59.6749 30.832 58.5145 32.5 57.9248V56.2498C32.5 52.7998 29.7 49.9998 26.25 49.9998H17.5C17.2011 49.9993 16.9047 49.9451 16.625 49.8398L16.61 49.8698C15.62 51.8448 15 55.1248 15 59.9998C15 64.2948 16.575 66.7148 18.19 68.0998C19.925 69.5898 21.85 69.9998 22.5 69.9998C23.163 69.9998 23.7989 70.2632 24.2678 70.732C24.7366 71.2008 25 71.8367 25 72.4998C25 74.3398 26 77.5548 28.2 80.3148C30.345 82.9898 33.43 84.9998 37.5 84.9998C40.3 84.9998 42.81 83.4348 44.75 81.3998C45.705 80.3998 46.45 79.3648 46.935 78.5148C47.1558 78.1378 47.3448 77.7431 47.5 77.3348V37.4998H42.075C41.4853 39.1678 40.3248 40.5737 38.7988 41.4688C37.2728 42.364 35.4794 42.6909 33.7357 42.3918C31.9919 42.0926 30.4101 41.1866 29.2697 39.8339C28.1294 38.4812 27.5039 36.769 27.5039 34.9998C27.5039 33.2305 28.1294 31.5183 29.2697 30.1656C30.4101 28.8129 31.9919 27.907 33.7357 27.6078C35.4794 27.3086 37.2728 27.6355 38.7988 28.5307C40.3248 29.4259 41.4853 30.8317 42.075 32.4998H47.5V22.4998ZM52.5 72.4948V77.3298C52.6553 77.7381 52.8443 78.1328 53.065 78.5098C53.555 79.3598 54.295 80.3948 55.245 81.3948C57.19 83.4298 59.705 84.9948 62.5 84.9948C66.57 84.9948 69.655 82.9848 71.8 80.3098C74 77.5498 75 74.3348 75 72.4948C75 71.8317 75.2634 71.1958 75.7322 70.727C76.2011 70.2582 76.837 69.9948 77.5 69.9948C78.15 69.9948 80.075 69.5848 81.81 68.0948C83.425 66.7098 85 64.2898 85 59.9948C85 55.1198 84.375 51.8448 83.39 49.8648C83.0605 49.1275 82.5433 48.4896 81.89 48.0148C81.327 47.6549 80.6677 47.4752 80 47.4998C79.5478 47.4995 79.1041 47.3766 78.7162 47.1442C78.3283 46.9117 78.0107 46.5784 77.7973 46.1798C77.5839 45.7811 77.4825 45.332 77.5041 44.8803C77.5258 44.4286 77.6695 43.9912 77.92 43.6148C79.84 40.7348 79.98 35.9998 78.585 32.0898C77.9 30.1748 76.945 28.7498 75.965 27.9548C75.07 27.2348 74.23 27.0548 73.29 27.3698C72.9144 27.4949 72.5144 27.529 72.123 27.4693C71.7316 27.4096 71.36 27.2578 71.0388 27.0264C70.7175 26.7949 70.4558 26.4905 70.2752 26.1382C70.0946 25.7859 70.0003 25.3957 70 24.9998C70 22.1598 68.6 19.7148 66.275 17.9098C63.7441 16.0116 60.6636 14.99 57.5 14.9998C56.5218 14.9535 55.5635 15.2867 54.825 15.9298C54.119 16.61 53.5873 17.4504 53.275 18.3798C52.799 19.6858 52.5373 21.0602 52.5 22.4498V67.4998H56.25C59.7 67.4998 62.5 64.6998 62.5 61.2498V52.0748C60.832 51.485 59.4261 50.3246 58.5309 48.7986C57.6357 47.2725 57.3088 45.4792 57.608 43.7354C57.9072 41.9917 58.8132 40.4099 60.1658 39.2695C61.5185 38.1291 63.2308 37.5037 65 37.5037C66.7692 37.5037 68.4815 38.1291 69.8342 39.2695C71.1868 40.4099 72.0928 41.9917 72.392 43.7354C72.6912 45.4792 72.3643 47.2725 71.4691 48.7986C70.5739 50.3246 69.168 51.485 67.5 52.0748V61.2498C67.5 64.2335 66.3147 67.0949 64.205 69.2047C62.0952 71.3145 59.2337 72.4998 56.25 72.4998H52.5V72.4948ZM32.5 34.9998C32.5 35.6628 32.7634 36.2987 33.2322 36.7675C33.7011 37.2364 34.337 37.4998 35 37.4998C35.663 37.4998 36.2989 37.2364 36.7678 36.7675C37.2366 36.2987 37.5 35.6628 37.5 34.9998C37.5 34.3367 37.2366 33.7008 36.7678 33.232C36.2989 32.7632 35.663 32.4998 35 32.4998C34.337 32.4998 33.7011 32.7632 33.2322 33.232C32.7634 33.7008 32.5 34.3367 32.5 34.9998ZM65 47.4998C65.663 47.4998 66.2989 47.2364 66.7678 46.7675C67.2366 46.2987 67.5 45.6628 67.5 44.9998C67.5 44.3367 67.2366 43.7008 66.7678 43.232C66.2989 42.7632 65.663 42.4998 65 42.4998C64.337 42.4998 63.7011 42.7632 63.2322 43.232C62.7634 43.7008 62.5 44.3367 62.5 44.9998C62.5 45.6628 62.7634 46.2987 63.2322 46.7675C63.7011 47.2364 64.337 47.4998 65 47.4998ZM35 62.4998C34.337 62.4998 33.7011 62.7632 33.2322 63.232C32.7634 63.7008 32.5 64.3367 32.5 64.9998C32.5 65.6628 32.7634 66.2987 33.2322 66.7675C33.7011 67.2364 34.337 67.4998 35 67.4998C35.663 67.4998 36.2989 67.2364 36.7678 66.7675C37.2366 66.2987 37.5 65.6628 37.5 64.9998C37.5 64.3367 37.2366 63.7008 36.7678 63.232C36.2989 62.7632 35.663 62.4998 35 62.4998Z" fill="#3F79E9"/>
</svg>
