<svg width="45" height="45" viewBox="0 0 45 45" fill="none" xmlns="http://www.w3.org/2000/svg">
<path d="M38.6719 4.92188H6.32812C5.55029 4.92188 4.92188 5.55029 4.92188 6.32812V38.6719C4.92188 39.4497 5.55029 40.0781 6.32812 40.0781H38.6719C39.4497 40.0781 40.0781 39.4497 40.0781 38.6719V6.32812C40.0781 5.55029 39.4497 4.92188 38.6719 4.92188ZM34.6113 15.1831H31.8032C29.6016 15.1831 29.1753 16.229 29.1753 17.7671V21.1553H34.4312L33.7456 26.4595H29.1753V40.0781H23.6953V26.4639H19.1118V21.1553H23.6953V17.2441C23.6953 12.7046 26.4683 10.2305 30.52 10.2305C32.4624 10.2305 34.1279 10.3755 34.6157 10.4414V15.1831H34.6113Z" fill="#3F79E9"/>
</svg>
