<svg width="100" height="100" viewBox="0 0 100 100" fill="none" xmlns="http://www.w3.org/2000/svg">
<g clip-path="url(#clip0_15_487)">
<path d="M49.947 7.0225e-06C36.6954 0.0140538 23.9913 5.2881 14.6259 14.6634C5.26056 24.0387 -7.44477e-06 36.7484 0 50C0 63.2608 5.26784 75.9785 14.6447 85.3553C24.0215 94.7322 36.7392 100 50 100C56.3379 100 62.6181 98.7955 68.506 96.45C66.8321 93.581 65.1668 90.7069 63.51 87.828C60.8 91.288 57.78 93.658 54.627 94.766C53.923 94.837 53.213 94.889 52.5 94.928V74.13H55.496C54.5782 72.5485 53.8348 70.872 53.279 69.13H52.5V66.02C51.8667 62.667 51.8667 59.225 52.5 55.872V52.5H53.371C53.7709 51.2764 54.2634 50.085 54.844 48.936C55.084 48.447 55.346 47.971 55.617 47.5H52.5V30.87H71.695C72.025 32.139 72.325 33.443 72.592 34.777C74.2145 34.3735 75.8729 34.131 77.543 34.053C77.3363 32.9869 77.1069 31.9253 76.855 30.869H90.745C91.852 33.2354 92.7498 35.6941 93.428 38.217C95.7344 39.6934 97.8095 41.503 99.586 43.587C98.0277 31.5374 92.1351 20.4676 83.0096 12.4461C73.884 4.42453 62.1499 0.000257034 50 7.0225e-06C49.9823 -2.34083e-06 49.9647 -2.34083e-06 49.947 7.0225e-06V7.0225e-06ZM52.5 5.68201C57.768 6.57801 62.802 10.918 66.768 18.119C68.046 20.44 69.188 23.046 70.176 25.869H52.5V5.68201ZM47.5 5.87901V25.869H30.75C31.738 23.046 32.88 20.44 34.158 18.119C37.89 11.341 42.571 7.10201 47.5 5.88001V5.87901ZM35.98 7.23201C33.656 9.58401 31.57 12.452 29.777 15.707C28.097 18.757 26.652 22.174 25.465 25.869H12.01C17.545 17.163 25.985 10.499 35.98 7.23201V7.23201ZM65.39 7.69501C74.788 11.108 82.71 17.563 87.99 25.869H75.455C74.271 22.174 72.828 18.757 71.148 15.707C69.472 12.662 67.535 9.95801 65.391 7.69501H65.39ZM9.257 30.87H24.065C22.82 36.032 22.057 41.63 21.862 47.501H5.072C5.38261 41.7399 6.80331 36.0931 9.256 30.871L9.257 30.87ZM29.231 30.87H47.5V47.5H26.867C27.079 41.565 27.91 35.946 29.23 30.87H29.231ZM5.072 52.5H21.834C21.963 58.356 22.654 63.954 23.828 69.13H9.256C6.80331 63.9079 5.38261 58.2611 5.072 52.5V52.5ZM26.834 52.5H47.5V69.13H28.98C27.735 64.03 26.974 58.415 26.834 52.5ZM12.01 74.13H25.146C26.388 78.215 27.946 81.97 29.777 85.295C31.215 87.905 32.845 90.264 34.631 92.313C25.224 88.903 17.295 82.443 12.01 74.131V74.13ZM30.404 74.13H47.5V94.928C47.192 94.911 46.888 94.88 46.582 94.858C41.992 93.358 37.658 89.238 34.158 82.883C32.73 80.289 31.466 77.346 30.404 74.131V74.13Z" fill="#3F79E9"/>
<path d="M79 40C67.458 40 58 49.43 58 60.94C58 65.4 59.424 69.545 61.835 72.952L76.438 98.196C78.483 100.868 79.843 100.361 81.544 98.056L97.65 70.646C97.975 70.056 98.23 69.43 98.453 68.79C99.4751 66.2991 100.001 63.6325 100 60.94C100 49.43 90.544 40 79 40ZM79 49.812C85.216 49.812 90.16 54.743 90.16 60.941C90.16 67.139 85.216 72.068 79 72.068C72.785 72.068 67.84 67.138 67.84 60.941C67.84 54.743 72.785 49.812 79 49.812Z" fill="#3F79E9"/>
</g>
<defs>
<clipPath id="clip0_15_487">
<rect width="100" height="100" fill="white"/>
</clipPath>
</defs>
</svg>
