<svg width="100" height="100" viewBox="0 0 100 100" fill="none" xmlns="http://www.w3.org/2000/svg">
<path d="M93.75 59.375H81.25V46.875H75V75H25V25H53.125V18.75H40.625V6.25H34.375V18.75H25C23.3429 18.7517 21.7542 19.4107 20.5824 20.5824C19.4107 21.7542 18.7517 23.3429 18.75 25V34.375H6.25V40.625H18.75V59.375H6.25V65.625H18.75V75C18.7517 76.6571 19.4107 78.2458 20.5824 79.4176C21.7542 80.5893 23.3429 81.2483 25 81.25H34.375V93.75H40.625V81.25H59.375V93.75H65.625V81.25H75C76.6568 81.2475 78.2451 80.5882 79.4167 79.4167C80.5882 78.2451 81.2475 76.6568 81.25 75V65.625H93.75V59.375Z" fill="#3F79E9"/>
<path d="M65.625 65.625H34.375V34.375H65.625V65.625ZM40.625 59.375H59.375V40.625H40.625V59.375ZM96.875 40.625H90.625C90.6151 32.34 87.3195 24.3972 81.4611 18.5389C75.6028 12.6805 67.66 9.38492 59.375 9.375V3.125C69.3173 3.13575 78.8493 7.09009 85.8796 14.1204C92.9099 21.1507 96.8642 30.6827 96.875 40.625V40.625Z" fill="#3F79E9"/>
<path d="M81.25 40.625H75C74.995 36.4825 73.3472 32.5111 70.4181 29.5819C67.4889 26.6528 63.5175 25.005 59.375 25V18.75C65.1746 18.7566 70.7347 21.0634 74.8357 25.1643C78.9366 29.2653 81.2434 34.8254 81.25 40.625Z" fill="#3F79E9"/>
</svg>
