<svg width="100" height="100" viewBox="0 0 100 100" fill="none" xmlns="http://www.w3.org/2000/svg">
<path d="M58.0078 38.7695C59.4727 37.3698 60.5957 35.7585 61.377 33.9355C62.1582 32.1126 62.5651 30.1758 62.5977 28.125C62.5977 26.0742 62.207 24.1374 61.4258 22.3145C60.6445 20.4915 59.5052 18.8802 58.0078 17.4805L62.3535 12.9883C64.4368 15.0065 66.0319 17.3014 67.1387 19.873C68.2454 22.4447 68.8151 25.1953 68.8477 28.125C68.8477 31.0221 68.2943 33.7565 67.1875 36.3281C66.0807 38.8997 64.4694 41.2109 62.3535 43.2617L58.0078 38.7695ZM71.0449 4.00391C72.6725 5.56641 74.1211 7.27539 75.3906 9.13086C76.6602 10.9863 77.7507 12.9395 78.6621 14.9902C79.5736 17.041 80.2409 19.1732 80.6641 21.3867C81.0872 23.6003 81.3151 25.8464 81.3477 28.125C81.3477 30.4036 81.1198 32.6497 80.6641 34.8633C80.2083 37.0768 79.541 39.209 78.6621 41.2598C77.7832 43.3105 76.709 45.2637 75.4395 47.1191C74.1699 48.9746 72.7051 50.6836 71.0449 52.2461L66.6992 47.7539C69.401 45.1497 71.4681 42.1712 72.9004 38.8184C74.3327 35.4655 75.0651 31.901 75.0977 28.125C75.0977 24.3815 74.3815 20.8333 72.9492 17.4805C71.5169 14.1276 69.4336 11.1328 66.6992 8.49609L71.0449 4.00391ZM31.3965 43.2617C29.3132 41.2435 27.7181 38.9486 26.6113 36.377C25.5046 33.8053 24.9349 31.0547 24.9023 28.125C24.9023 25.2279 25.4557 22.4935 26.5625 19.9219C27.6693 17.3503 29.2806 15.0391 31.3965 12.9883L35.7422 17.4805C34.2773 18.8802 33.1543 20.4915 32.373 22.3145C31.5918 24.1374 31.1849 26.0742 31.1523 28.125C31.1523 30.1758 31.543 32.1126 32.3242 33.9355C33.1055 35.7585 34.2448 37.3698 35.7422 38.7695L31.3965 43.2617ZM22.7051 52.2461C21.0775 50.6836 19.6289 48.9746 18.3594 47.1191C17.0898 45.2637 15.9993 43.3105 15.0879 41.2598C14.1764 39.209 13.5091 37.0768 13.0859 34.8633C12.6628 32.6497 12.4349 30.4036 12.4023 28.125C12.4023 25.8464 12.6302 23.6003 13.0859 21.3867C13.5417 19.1732 14.209 17.041 15.0879 14.9902C15.9668 12.9395 17.041 10.9863 18.3105 9.13086C19.5801 7.27539 21.0449 5.56641 22.7051 4.00391L27.0508 8.49609C24.349 11.1003 22.2819 14.0788 20.8496 17.4316C19.4173 20.7845 18.6849 24.349 18.6523 28.125C18.6523 31.8685 19.3685 35.4167 20.8008 38.7695C22.2331 42.1224 24.3164 45.1172 27.0508 47.7539L22.7051 52.2461ZM56.25 28.125C56.25 29.5898 55.9408 30.957 55.3223 32.2266C54.7038 33.4961 53.8086 34.5866 52.6367 35.498L72.0215 93.75H65.4785L61.2793 81.25H32.4707L28.2715 93.75H21.7285L41.1133 35.498C39.974 34.6191 39.0951 33.5449 38.4766 32.2754C37.8581 31.0059 37.5326 29.6224 37.5 28.125C37.5 26.8229 37.7441 25.6022 38.2324 24.4629C38.7207 23.3236 39.388 22.3307 40.2344 21.4844C41.0807 20.638 42.0736 19.9707 43.2129 19.4824C44.3522 18.9941 45.5729 18.75 46.875 18.75C48.1771 18.75 49.3978 18.9941 50.5371 19.4824C51.6764 19.9707 52.6693 20.638 53.5156 21.4844C54.362 22.3307 55.0293 23.3236 55.5176 24.4629C56.0059 25.6022 56.25 26.8229 56.25 28.125ZM46.875 25C46.0286 25 45.2962 25.3092 44.6777 25.9277C44.0592 26.5462 43.75 27.2786 43.75 28.125C43.75 28.9714 44.0592 29.7038 44.6777 30.3223C45.2962 30.9408 46.0286 31.25 46.875 31.25C47.7214 31.25 48.4538 30.9408 49.0723 30.3223C49.6908 29.7038 50 28.9714 50 28.125C50 27.2786 49.6908 26.5462 49.0723 25.9277C48.4538 25.3092 47.7214 25 46.875 25ZM46.875 37.9883L40.7715 56.25H52.9785L46.875 37.9883ZM59.2285 75L55.0293 62.5H38.7207L34.5215 75H59.2285Z" fill="#3F79E9"/>
</svg>
